<svg
        xmlns="http://www.w3.org/2000/svg"
        version="1.1"
        width="1000"
        height="212"
        viewBox="0 0 1000 212"
>
    <g transform="matrix(1,0,0,1,-0.6060550908816253,0.41791882669767233)">
        <svg
                viewBox="0 0 396 84"
                data-background-color="#ffffff"
                preserveAspectRatio="xMidYMid meet"
                height="212"
                width="1000"
                xmlns="http://www.w3.org/2000/svg"
        >
            <g transform="matrix(1,0,0,1,0.2399978159891134,-0.1655904785028497)">
                <svg
                        viewBox="0 0 395.52 84.33118095700569"
                        height="84.33118095700569"
                        width="395.52"
                >
                    <svg
                            viewBox="0 0 539.7998346287359 115.0939460321543"
                            height="84.33118095700569"
                            width="395.52"
                    >
                        <rect
                                width="4.772353149464694"
                                height="115.0939460321543"
                                x="127.01441040737406"
                                y="0"
                                fill="#50a060"
                                opacity="1"
                                stroke-width="0"
                                stroke="transparent"
                                fill-opacity="1"
                                rx="1%"
                        >
                        </rect>
                        <g transform="matrix(1,0,0,1,144.27983462873587,0.2863033483386843)">
                            <svg
                                    viewBox="0 0 395.52 114.52133933547694"
                                    height="114.52133933547694"
                                    width="395.52"
                            >
                                <svg
                                        viewBox="0 0 395.52 114.52133933547694"
                                        height="114.52133933547694"
                                        width="395.52"
                                >
                                    <svg
                                            viewBox="0 0 395.52 114.52133933547694"
                                            height="114.52133933547694"
                                            width="395.52"
                                    >
                                        <g transform="matrix(1,0,0,1,0,0)">
                                            <svg
                                                    width="395.52"
                                                    viewBox="1.9799995422363281 -36.060001373291016 273.3399963378906 76.13999938964844"
                                                    height="114.52133933547694"
                                                    data-palette-color="#50a060"
                                            >
                                                <path
                                                        xmlns="http://www.w3.org/2000/svg"
                                                        d="M14.75 0h-12.77v-3.08l3.98-0.68v-28l-3.98-0.69v-3.1h26.73v8.55h-3.86l-0.53-4.81h-13.55v12.3h13.01v3.79h-13.01v11.96l3.98 0.68zM37.18 0h-10.18v-3.08l2.64-0.36 12.43-32.11h4.12l12.21 32.11 2.61 0.36v3.08h-10.2v-3.08l2.68-0.46-2.34-6.54h-14.24l-2.41 6.54 2.68 0.46zM43.73-28.56l-5.33 14.45h11.28l-5.22-14.45-0.29-0.81h-0.15zM76.49 0h-4.13l-11.91-32.06-2.83-0.39v-3.1h11.23v3.1l-3.25 0.52 7.96 22.6 0.83 2.81h0.15l0.88-2.81 8.25-22.63-3.62-0.49v-3.1h11.21v3.1l-2.86 0.39zM107.74 0.51v0c-2.293 0-4.353-0.44-6.18-1.32-1.82-0.873-3.37-2.113-4.65-3.72-1.273-1.6-2.25-3.5-2.93-5.7-0.673-2.2-1.01-4.623-1.01-7.27v0-0.52c0-2.633 0.337-5.053 1.01-7.26 0.68-2.207 1.657-4.117 2.93-5.73 1.28-1.607 2.83-2.85 4.65-3.73 1.827-0.88 3.887-1.32 6.18-1.32v0c2.427 0 4.56 0.44 6.4 1.32 1.833 0.88 3.373 2.123 4.62 3.73 1.247 1.613 2.187 3.523 2.82 5.73 0.633 2.207 0.95 4.627 0.95 7.26v0 0.52c0 2.647-0.317 5.07-0.95 7.27-0.633 2.2-1.573 4.1-2.82 5.7-1.247 1.607-2.787 2.847-4.62 3.72-1.84 0.88-3.973 1.32-6.4 1.32zM107.74-3.49v0c2.36 0 4.267-0.587 5.72-1.76 1.46-1.173 2.53-2.813 3.21-4.92 0.687-2.107 1.03-4.55 1.03-7.33v0-0.57c0-2.767-0.347-5.193-1.04-7.28-0.687-2.093-1.763-3.73-3.23-4.91-1.467-1.18-3.363-1.77-5.69-1.77v0c-2.133 0-3.94 0.593-5.42 1.78-1.48 1.187-2.603 2.827-3.37 4.92-0.767 2.093-1.15 4.513-1.15 7.26v0 0.57c0 2.767 0.383 5.203 1.15 7.31 0.767 2.107 1.89 3.75 3.37 4.93 1.48 1.18 3.287 1.77 5.42 1.77zM142.68 0.51v0c-2.447 0-4.63-0.48-6.55-1.44-1.92-0.96-3.433-2.33-4.54-4.11-1.107-1.78-1.66-3.917-1.66-6.41v0-20.31l-3.98-0.69v-3.1h12.77v3.1l-3.98 0.69v20.31c0 1.773 0.337 3.263 1.01 4.47 0.68 1.2 1.62 2.107 2.82 2.72 1.207 0.613 2.6 0.92 4.18 0.92v0c1.593 0 3.003-0.303 4.23-0.91 1.233-0.6 2.197-1.503 2.89-2.71 0.687-1.2 1.03-2.697 1.03-4.49v0-20.31l-3.98-0.69v-3.1h12.77v3.1l-3.98 0.69v20.31c0 2.573-0.54 4.75-1.62 6.53-1.08 1.78-2.597 3.13-4.55 4.05-1.953 0.92-4.24 1.38-6.86 1.38zM176.15 0h-12.77v-3.08l3.98-0.68v-28l-3.98-0.69v-3.07h15.84c2.593 0 4.78 0.387 6.56 1.16 1.78 0.773 3.133 1.89 4.06 3.35 0.933 1.467 1.4 3.26 1.4 5.38v0c0 2.08-0.453 3.827-1.36 5.24-0.9 1.42-2.18 2.49-3.84 3.21-1.667 0.727-3.637 1.113-5.91 1.16v0l-7.96 0.15v12.11l3.98 0.68zM192.77 0h-5.93l-7.91-17.75 4.81-0.05 6.57 14.21 2.46 0.44zM172.17-31.76v12.11h6.57c2.68 0 4.63-0.513 5.85-1.54 1.227-1.027 1.84-2.523 1.84-4.49v0c0-1.873-0.587-3.357-1.76-4.45-1.173-1.087-2.99-1.63-5.45-1.63v0zM209.96 0h-12.77v-3.08l3.98-0.68v-28l-3.98-0.69v-3.1h12.77v3.1l-3.98 0.69v28l3.98 0.68zM235.45 0h-12.77v-3.08l3.98-0.68v-28.15h-8.06l-0.7 4.93h-3.62v-8.57h29.54v8.57h-3.56l-0.73-4.93h-8.06v28.15l3.98 0.68zM275.32 0h-27.08v-3.08l3.98-0.68v-28l-3.98-0.69v-3.1h26.32v8.55h-3.86l-0.53-4.84h-13.14v11.58h13.11v3.78h-13.11v12.87h13.92l0.53-4.91h3.84z"
                                                        fill="#50a060"
                                                        fill-rule="nonzero"
                                                        stroke="none"
                                                        stroke-width="1"
                                                        stroke-linecap="butt"
                                                        stroke-linejoin="miter"
                                                        stroke-miterlimit="10"
                                                        stroke-dasharray=""
                                                        stroke-dashoffset="0"
                                                        style="mix-blend-mode: normal"
                                                        opacity="1"
                                                >
                                                </path>
                                                <path
                                                        xmlns="http://www.w3.org/2000/svg"
                                                        d="M15.06 39.57h-12.77v-3.08l3.98-0.68v-28l-3.98-0.69v-3.1h3.98 6.43l11.45 26.98h0.14l11.09-26.98h10.71v3.1l-3.98 0.69v28l3.98 0.68v3.08h-12.76v-3.08l4.19-0.68v-10.3-14.92l-0.12-0.02-11.55 27.73h-3.19l-11.94-27.69-0.12 0.03 0.17 14.87v10.3l4.29 0.68zM64.87 40.08v0c-2.293 0-4.353-0.44-6.18-1.32-1.82-0.873-3.37-2.113-4.65-3.72-1.28-1.6-2.257-3.5-2.93-5.7-0.673-2.2-1.01-4.623-1.01-7.27v0-0.52c0-2.633 0.337-5.053 1.01-7.26 0.673-2.207 1.65-4.117 2.93-5.73 1.28-1.607 2.83-2.85 4.65-3.73 1.827-0.88 3.887-1.32 6.18-1.32v0c2.427 0 4.557 0.44 6.39 1.32 1.84 0.88 3.383 2.123 4.63 3.73 1.247 1.613 2.187 3.523 2.82 5.73 0.633 2.207 0.95 4.627 0.95 7.26v0 0.52c0 2.647-0.317 5.07-0.95 7.27-0.633 2.2-1.573 4.1-2.82 5.7-1.247 1.607-2.79 2.847-4.63 3.72-1.833 0.88-3.963 1.32-6.39 1.32zM64.87 36.08v0c2.36 0 4.267-0.587 5.72-1.76 1.46-1.173 2.53-2.813 3.21-4.92 0.687-2.107 1.03-4.55 1.03-7.33v0-0.57c0-2.767-0.347-5.193-1.04-7.28-0.693-2.093-1.77-3.73-3.23-4.91-1.467-1.18-3.363-1.77-5.69-1.77v0c-2.133 0-3.94 0.593-5.42 1.78-1.48 1.187-2.603 2.827-3.37 4.92-0.767 2.093-1.15 4.513-1.15 7.26v0 0.57c0 2.767 0.383 5.203 1.15 7.31 0.767 2.107 1.89 3.75 3.37 4.93 1.48 1.18 3.287 1.77 5.42 1.77zM100.32 39.57h-4.13l-11.91-32.06-2.83-0.39v-3.1h11.23v3.1l-3.25 0.52 7.96 22.6 0.83 2.81h0.14l0.88-2.81 8.26-22.63-3.62-0.49v-3.1h11.21v3.1l-2.86 0.39zM131.42 39.57h-12.77v-3.08l3.98-0.68v-28l-3.98-0.69v-3.1h12.77v3.1l-3.98 0.69v28l3.98 0.68zM162.45 39.57h-27.07v-3.08l3.98-0.68v-28l-3.98-0.69v-3.1h26.31v8.55h-3.85l-0.54-4.84h-13.13v11.58h13.11v3.78h-13.11v12.87h13.91l0.54-4.91h3.83zM180.08 40.08v0c-2.167 0-4.25-0.317-6.25-0.95-2-0.633-3.913-1.61-5.74-2.93v0-7.59h3.74l0.8 5.59c1.06 0.653 2.207 1.157 3.44 1.51 1.24 0.36 2.577 0.54 4.01 0.54v0c1.627 0 3.007-0.247 4.14-0.74 1.127-0.5 1.993-1.19 2.6-2.07 0.6-0.88 0.9-1.903 0.9-3.07v0c0-1.093-0.26-2.053-0.78-2.88-0.52-0.833-1.38-1.563-2.58-2.19-1.193-0.627-2.823-1.177-4.89-1.65v0c-2.44-0.567-4.503-1.327-6.19-2.28-1.687-0.953-2.963-2.11-3.83-3.47-0.873-1.36-1.31-2.917-1.31-4.67v0c0-1.86 0.493-3.52 1.48-4.98 0.98-1.467 2.35-2.623 4.11-3.47 1.76-0.847 3.81-1.27 6.15-1.27v0c2.493 0 4.697 0.38 6.61 1.14 1.913 0.753 3.487 1.667 4.72 2.74v0 7.11h-3.73l-0.81-5.08c-0.733-0.587-1.643-1.077-2.73-1.47-1.093-0.387-2.447-0.58-4.06-0.58v0c-1.367 0-2.57 0.24-3.61 0.72-1.04 0.48-1.853 1.15-2.44 2.01-0.587 0.867-0.88 1.883-0.88 3.05v0c0 1.027 0.263 1.923 0.79 2.69 0.533 0.767 1.397 1.437 2.59 2.01 1.2 0.58 2.8 1.123 4.8 1.63v0c3.74 0.927 6.577 2.297 8.51 4.11 1.927 1.813 2.89 4.057 2.89 6.73v0c0 1.9-0.513 3.587-1.54 5.06-1.027 1.473-2.47 2.627-4.33 3.46-1.867 0.827-4.06 1.24-6.58 1.24z"
                                                        fill="#50a060"
                                                        fill-rule="nonzero"
                                                        stroke="none"
                                                        stroke-width="1"
                                                        stroke-linecap="butt"
                                                        stroke-linejoin="miter"
                                                        stroke-miterlimit="10"
                                                        stroke-dasharray=""
                                                        stroke-dashoffset="0"
                                                        style="mix-blend-mode: normal"
                                                        opacity="1"
                                                >
                                                </path>
                                            </svg>
                                        </g>
                                    </svg>
                                </svg>
                            </svg>
                        </g>
                        <g transform="matrix(1,0,0,1,0,0.2863033483386772)">
                            <svg viewBox="0 0 114.52133933547695 114.52133933547695"
                                 height="114.52133933547695"
                                 width="114.52133933547695"
                            >
                                <svg
                                        xmlns="http://www.w3.org/2000/svg"
                                        version="1.1"
                                        x="0"
                                        y="0"
                                        viewBox="0 0 100 100"
                                        style="enable-background:new 0 0 100 100;"
                                        xml:space="preserve"
                                        height="114.52133933547695"
                                        width="114.52133933547695"
                                        data-fill-palette-color="accent"
                                >
                                        <path
                                                d="M87.427 25H75.086L87.5 12.549 75.232 0H57.837l12.464 12.451L57.531 25H42.773l12.684-12.451L42.92 0H25.244l12.451 12.451L24.927 25H12.402l12.695-12.451L12.549 0H0v100h100V0H87.744L100 12.5 87.427 25zM87.5 87.365h-75v-12.5h75V87.365zM87.5 62.5h-75V50h75V62.5z"
                                                fill="#50a060"
                                        >
                                        </path>
                                    </svg>
                            </svg>
                        </g>
                    </svg>
                </svg>
                <rect
                        width="395.52"
                        height="84.33118095700569"
                        fill="none"
                        stroke="none"
                        visibility="hidden"
                >
                </rect>
            </g>
        </svg>
    </g>
</svg>