<svg width="24" height="24" viewBox="0 0 24 24" fill="none" xmlns="http://www.w3.org/2000/svg">
<mask id="mask0_7_342" style="mask-type:luminance" maskUnits="userSpaceOnUse" x="0" y="0" width="24" height="24">
<path d="M24 0H0V24H24V0Z" fill="white"/>
</mask>
<g mask="url(#mask0_7_342)">
<path d="M23.766 12.2764C23.766 11.4607 23.7 10.6406 23.559 9.8381H12.24V14.4591H18.722C18.453 15.9494 17.589 17.2678 16.323 18.1056V21.1039H20.19C22.461 19.0139 23.766 15.9274 23.766 12.2764Z" fill="#4285F4"/>
<path d="M12.24 24.0008C15.477 24.0008 18.206 22.9382 20.195 21.1039L16.328 18.1055C15.252 18.8375 13.863 19.252 12.245 19.252C9.11396 19.252 6.45897 17.1399 5.50697 14.3003H1.51697V17.3912C3.55397 21.4434 7.70297 24.0008 12.24 24.0008Z" fill="#34A853"/>
<path d="M5.50299 14.3003C4.99999 12.8099 4.99999 11.1961 5.50299 9.70571V6.61481H1.51698C-0.185022 10.0056 -0.185022 14.0004 1.51698 17.3912L5.50299 14.3003Z" fill="#FBBC04"/>
<path d="M12.24 4.74971C13.951 4.72321 15.604 5.36701 16.843 6.54871L20.269 3.12261C18.1 1.08551 15.221 -0.0344902 12.24 0.00080979C7.70297 0.00080979 3.55397 2.55821 1.51697 6.61481L5.50298 9.70581C6.45098 6.86171 9.10897 4.74971 12.24 4.74971Z" fill="#EA4335"/>
</g>
</svg>
